<?xml version="1.0" encoding="UTF-8" standalone="no"?>
<!-- Created with Inkscape (http://www.inkscape.org/) -->

<svg
   xmlns:dc="http://purl.org/dc/elements/1.1/"
   xmlns:cc="http://creativecommons.org/ns#"
   xmlns:rdf="http://www.w3.org/1999/02/22-rdf-syntax-ns#"
   xmlns:svg="http://www.w3.org/2000/svg"
   xmlns="http://www.w3.org/2000/svg"
   xmlns:sodipodi="http://sodipodi.sourceforge.net/DTD/sodipodi-0.dtd"
   xmlns:inkscape="http://www.inkscape.org/namespaces/inkscape"
   width="171.97917mm"
   height="153.45833mm"
   viewBox="0 0 171.97917 153.45833"
   version="1.1"
   id="svg4503"
   inkscape:version="0.92.0 r15299"
   sodipodi:docname="logo-amarillo.svg">
  <defs
     id="defs4497" />
  <sodipodi:namedview
     id="base"
     pagecolor="#ffffff"
     bordercolor="#666666"
     borderopacity="1.0"
     inkscape:pageopacity="0.0"
     inkscape:pageshadow="2"
     inkscape:zoom="0.7"
     inkscape:cx="472.44048"
     inkscape:cy="345.04247"
     inkscape:document-units="mm"
     inkscape:current-layer="layer1"
     showgrid="false"
     fit-margin-top="0"
     fit-margin-left="0"
     fit-margin-right="0"
     fit-margin-bottom="0"
     inkscape:window-width="1366"
     inkscape:window-height="706"
     inkscape:window-x="-8"
     inkscape:window-y="-8"
     inkscape:window-maximized="1" />
  <metadata
     id="metadata4500">
    <rdf:RDF>
      <cc:Work
         rdf:about="">
        <dc:format>image/svg+xml</dc:format>
        <dc:type
           rdf:resource="http://purl.org/dc/dcmitype/StillImage" />
        <dc:title></dc:title>
      </cc:Work>
    </rdf:RDF>
  </metadata>
  <g
     inkscape:label="Layer 1"
     inkscape:groupmode="layer"
     id="layer1"
     transform="translate(-18.142857,-71.726189)">
    <rect
       style="fill:#000000;stroke-width:0.28305534"
       id="rect5048"
       width="171.97917"
       height="153.45833"
       x="18.142857"
       y="71.726189"
       ry="1.7438124" />
    <g
       id="g18"
       transform="matrix(0.26458333,0,0,0.26458333,21.262342,78.133281)">
      <g
         id="g4495">
        <rect
           transform="translate(12)"
           ry="6.13625"
           y="0.52081299"
           x="-1.9984014e-015"
           height="532.8125"
           width="601.5625"
           id="rect4487"
           style="fill:#ffcc00" />
        <path
           style="fill:#000000;stroke:#000000;stroke-width:1px;stroke-linecap:butt;stroke-linejoin:miter;stroke-opacity:1"
           d="m 257,253.33331 c 5.24517,-45.5813 21.65781,-106.1727 35.83009,-135.47515 C 263.21626,65.247563 225.85933,34.575751 178.17492,33.165145 90.248235,41.152762 55.88586,150.38138 37,253.33331 Z"
           id="path20"
           inkscape:connector-curvature="0"
           sodipodi:nodetypes="ccccc" />
        <path
           style="fill:#000000;stroke:#000000;stroke-width:1px;stroke-linecap:butt;stroke-linejoin:miter;stroke-opacity:1"
           d="m 37,319.4291 220,0.48614 c 5.02138,34.97301 18.18992,67.31216 32.98368,94.76796 -23.17072,41.18683 -52.01003,77.03852 -113.14753,82.49192 C 75.112641,488.91868 49.229067,390.91105 37,319.4291 Z"
           id="path22"
           inkscape:connector-curvature="0"
           sodipodi:nodetypes="ccccc" />
        <path
           style="fill:#000000;stroke:#000000;stroke-width:1px;stroke-linecap:butt;stroke-linejoin:miter;stroke-opacity:1"
           d="m 297,348.33331 150,-95 150,95 H 557 C 535.79348,419.58907 511.06396,489.57956 416.72617,500.247 L 213.27683,499.15252 C 281.86395,486.57694 346.55828,353.03447 337,348.33331 c -1.12994,0.56497 -40,0 -40,0 z"
           id="path24"
           inkscape:connector-curvature="0"
           sodipodi:nodetypes="cccccccc" />
        <path
           style="fill:#000000;stroke:#000000;stroke-width:1px;stroke-linecap:butt;stroke-linejoin:miter;stroke-opacity:1"
           d="M 332,183.33331 H 562 C 545.81666,121.85751 507.17866,42.745883 426.83614,33.050845 L 218.64406,33.333331 C 271.24116,51.891465 317.55362,113.06167 332,183.33331 Z"
           id="path12"
           inkscape:connector-curvature="0"
           sodipodi:nodetypes="ccccc" />
      </g>
    </g>
  </g>
</svg>
